<?xml version="1.0" encoding="UTF-8"?>
<svg width="200px" height="150px" viewBox="0 0 200 150" version="1.1" xmlns="http://www.w3.org/2000/svg" xmlns:xlink="http://www.w3.org/1999/xlink">
    <title>Service Placeholder</title>
    <g id="Page-1" stroke="none" stroke-width="1" fill="none" fill-rule="evenodd">
        <rect id="Background" fill="#E0E0E0" x="0" y="0" width="200" height="150"></rect>
        <g id="Icon" transform="translate(75.000000, 50.000000)" fill="#9E9E9E">
            <path d="M25,0 C38.8071187,0 50,11.1928813 50,25 C50,38.8071187 38.8071187,50 25,50 C11.1928813,50 0,38.8071187 0,25 C0,11.1928813 11.1928813,0 25,0 Z M25,7.5 C15.3350169,7.5 7.5,15.3350169 7.5,25 C7.5,34.6649831 15.3350169,42.5 25,42.5 C34.6649831,42.5 42.5,34.6649831 42.5,25 C42.5,15.3350169 34.6649831,7.5 25,7.5 Z M25,15 C29.1421356,15 32.5,18.3578644 32.5,22.5 C32.5,26.6421356 29.1421356,30 25,30 C20.8578644,30 17.5,26.6421356 17.5,22.5 C17.5,18.3578644 20.8578644,15 25,15 Z M25,32.5 C31.9035594,32.5 37.5,35.8134766 37.5,40 L37.5,42.5 L12.5,42.5 L12.5,40 C12.5,35.8134766 18.0964406,32.5 25,32.5 Z" id="Combined-Shape"></path>
        </g>
    </g>
</svg>
